<svg width="18" height="21" viewBox="0 0 18 21" fill="none" xmlns="http://www.w3.org/2000/svg">
<g clip-path="url(#clip0_1558_103770)">
<path d="M17.464 11.7405C17.1115 11.4807 16.5802 11.29 15.8292 11.29C14.4833 11.29 13.1719 12.1391 13.1719 14.1148C13.1719 16.0906 14.4833 16.8877 15.7772 16.8877C17.1347 16.8877 17.9956 16.0499 17.9956 14.8255C17.9956 14.0513 17.5103 13.5141 16.5342 13.5141H16.2512C15.7428 13.5141 15.3499 13.7511 15.3499 14.2707C15.3499 14.7444 15.7772 14.9698 16.095 14.9698C16.2509 14.9698 16.3608 15.0162 16.3608 15.1373C16.3608 15.2876 16.1761 15.3856 15.9795 15.3856C15.3267 15.3856 14.8818 14.9407 14.8818 14.1148C14.8818 13.1963 15.4882 12.8613 15.9563 12.8613C16.5283 12.8613 16.6206 13.1503 17.0191 13.1503C17.4812 13.1503 17.7934 12.7749 17.7934 12.3936C17.7934 12.1106 17.6662 11.8911 17.464 11.7409V11.7405Z" fill="#9F8F90"/>
<path d="M9.76676 14.6405V15.8883C9.76676 16.4487 9.44337 16.8936 8.84822 16.8936C8.25308 16.8936 7.92969 16.4487 7.92969 15.8883V12.3185C7.92969 11.7465 8.26466 11.2904 8.87139 11.2904C9.23517 11.2904 9.55293 11.4291 9.85911 12.0239L10.6621 13.5836C10.7025 13.6643 10.7373 13.6935 10.7833 13.6935C10.8468 13.6935 10.8816 13.6471 10.8816 13.5432V12.2953C10.8816 11.7349 11.205 11.29 11.8001 11.29C12.3953 11.29 12.7187 11.7349 12.7187 12.2953V15.8652C12.7187 16.4372 12.3837 16.8933 11.7769 16.8933C11.4244 16.8933 11.0954 16.7546 10.7892 16.1598L9.98622 14.6001C9.94583 14.5193 9.91108 14.4902 9.86507 14.4902C9.80152 14.4902 9.76676 14.5365 9.76676 14.6405Z" fill="#9F8F90"/>
<path d="M1.8948 15.8705V15.0502C1.8948 14.9811 1.9236 14.9291 1.99311 14.9291C2.08546 14.9291 2.10863 15.0214 2.1318 15.0678C2.26453 15.3856 2.65181 16.0615 3.00995 16.46C3.25258 16.7258 3.5528 16.8933 3.87056 16.8933C4.40778 16.8933 4.85828 16.4252 4.85828 15.9228C4.85828 15.611 4.72555 15.3799 4.47134 15.1025C4.14795 14.75 3.76663 14.2879 3.62794 14.0744C3.57597 13.9937 3.57001 13.9417 3.57001 13.9185C3.57001 13.855 3.60477 13.8087 3.67395 13.7451C3.83581 13.5948 4.23434 13.2195 4.45379 12.8785C4.62128 12.6187 4.69079 12.3817 4.69079 12.1854C4.69079 11.6829 4.23434 11.29 3.7375 11.29C3.41974 11.29 3.11952 11.4691 2.91727 11.7985C2.64585 12.2374 2.32213 12.7458 2.11426 12.948C2.06229 13 2.03349 13.0116 1.99311 13.0116C1.92393 13.0116 1.8948 12.9653 1.8948 12.8904V12.3128C1.8948 11.7468 1.55982 11.2904 0.953094 11.2904C0.346364 11.2904 0.0117188 11.7458 0.0117188 12.3122V15.8705C0.0117188 16.4365 0.341068 16.8929 0.953425 16.8929C1.56578 16.8929 1.89513 16.4365 1.89513 15.8705H1.8948Z" fill="#9F8F90"/>
<path d="M17.5147 17.4766C17.8497 17.4766 18 17.6384 18 17.9214C18 18.4183 17.5435 19.1114 16.6426 19.6198C15.1405 20.4688 12.5643 20.7115 9 20.7115C5.43575 20.7115 2.85954 20.4688 1.35745 19.6198C0.456124 19.1114 0 18.4183 0 17.9214C0 17.6384 0.150276 17.4766 0.485252 17.4766H17.5151H17.5147Z" fill="#9F8F90"/>
<path d="M17.5147 6.44918H0.485252C0.150276 6.44918 0 6.27573 0 5.96392C0 4.11526 2.77845 0.851562 9 0.851562C15.2216 0.851562 18 4.11526 18 5.96392C18 6.27573 17.8497 6.44918 17.5147 6.44918Z" fill="#9F8F90"/>
<path d="M16.4112 8.74872C16.3129 8.74872 16.2669 8.6908 16.2669 8.61599V8.22309C16.2669 8.14795 16.3132 8.09035 16.4112 8.09035H16.4919C16.7346 8.09035 16.8097 8.2638 16.8097 8.41374C16.8097 8.56369 16.7346 8.74872 16.4919 8.74872H16.4112ZM11.9575 7.40849C11.7149 7.22941 11.374 7.09668 10.8659 7.09668C9.9705 7.09668 9.09831 7.68587 9.09831 9.04927C9.09831 10.4127 9.9705 10.9615 10.8314 10.9615C11.7384 10.9615 12.3104 10.3839 12.3104 9.54048C12.3104 9.00326 11.987 8.63353 11.3399 8.63353H11.1552C10.8142 8.63353 10.5488 8.79539 10.5488 9.15917C10.5488 9.48256 10.8318 9.63879 11.0456 9.63879C11.1555 9.63879 11.2247 9.67355 11.2247 9.75431C11.2247 9.85825 11.1035 9.92776 10.9648 9.92776C10.5316 9.92776 10.237 9.62158 10.237 9.0496C10.237 8.41408 10.6414 8.18303 10.9533 8.18303C11.3346 8.18303 11.3981 8.37932 11.6639 8.37932C11.9701 8.37932 12.178 8.12511 12.178 7.85931C12.178 7.66303 12.0912 7.51275 11.9585 7.40882L11.9575 7.40849ZM14.2279 9.48223H13.8293C13.731 9.48223 13.685 9.54015 13.685 9.61496V9.72485C13.685 9.79999 13.7314 9.85759 13.8293 9.85759H14.3494C14.6727 9.85759 14.927 10.0482 14.927 10.3892C14.927 10.7301 14.6727 10.9264 14.3494 10.9264H13.2577C12.8013 10.9264 12.5818 10.6606 12.5818 10.3025V7.75505C12.5818 7.3969 12.8013 7.1311 13.2577 7.1311H14.3494C14.6727 7.1311 14.927 7.32176 14.927 7.6627C14.927 8.00363 14.6727 8.19992 14.3494 8.19992H13.8293C13.731 8.19992 13.685 8.25784 13.685 8.33265V8.425C13.685 8.50014 13.7314 8.55773 13.8293 8.55773H14.2279C14.5053 8.55773 14.7247 8.72522 14.7247 9.01981C14.7247 9.31441 14.5053 9.4819 14.2279 9.4819V9.48223ZM15.1868 10.3313C15.1868 10.6778 15.389 10.9552 15.7588 10.9552C16.1285 10.9552 16.3307 10.6778 16.3307 10.3313V9.71889C16.3307 9.64376 16.3655 9.609 16.4231 9.609C16.4923 9.609 16.5154 9.64938 16.527 9.71889C16.579 10.0135 16.7177 10.412 16.8736 10.6143C17.0699 10.8741 17.2549 10.9552 17.4396 10.9552C17.7402 10.9552 18 10.7182 18 10.4236C18 10.2273 17.9192 10.0827 17.8153 9.94993C17.619 9.70168 17.4975 9.53982 17.4224 9.33758C17.4052 9.29124 17.4168 9.25085 17.4687 9.21047C17.6478 9.07178 17.8557 8.7656 17.8557 8.28035C17.8557 7.54685 17.2493 7.13077 16.5154 7.13077H15.8627C15.4063 7.13077 15.1868 7.39657 15.1868 7.75472V10.3313ZM6.22718 10.3313C6.22718 10.6778 6.42942 10.9552 6.79915 10.9552C7.16889 10.9552 7.37113 10.6778 7.37113 10.3313V9.71889C7.37113 9.64376 7.40588 9.609 7.46348 9.609C7.53266 9.609 7.55583 9.64938 7.56741 9.71889C7.61938 10.0135 7.75807 10.412 7.91398 10.6143C8.11026 10.8741 8.29529 10.9552 8.47999 10.9552C8.78054 10.9552 9.04038 10.7182 9.04038 10.4236C9.04038 10.2273 8.95962 10.0827 8.85568 9.94993C8.68819 9.73048 8.53792 9.53982 8.46278 9.33758C8.44557 9.29124 8.45715 9.25085 8.50912 9.21047C8.68819 9.07178 8.89606 8.7656 8.89606 8.28035C8.89606 7.54685 8.28967 7.13077 7.55583 7.13077H6.90309C6.44663 7.13077 6.22718 7.39657 6.22718 7.75472V10.3313ZM7.45189 8.74839C7.35359 8.74839 7.30758 8.69046 7.30758 8.61566V8.22276C7.30758 8.14762 7.35392 8.09002 7.45189 8.09002H7.53266C7.77529 8.09002 7.85042 8.26347 7.85042 8.41341C7.85042 8.56336 7.77529 8.74839 7.53266 8.74839H7.45189ZM1.16116 9.34354H1.2651C1.54248 9.34354 1.62324 9.52824 1.62324 9.69605C1.62324 9.84633 1.54248 10.0598 1.2651 10.0598H1.16116C1.06285 10.0598 1.01684 10.0019 1.01684 9.9271V9.4766C1.01684 9.40146 1.06318 9.34387 1.16116 9.34387V9.34354ZM1.16116 8.65041C1.06285 8.65041 1.01684 8.59249 1.01684 8.51768V8.12478C1.01684 8.04964 1.06318 7.99205 1.16116 7.99205H1.2363C1.48455 7.99205 1.55969 8.16549 1.55969 8.31544C1.55969 8.45413 1.48455 8.65041 1.2363 8.65041H1.16116ZM0.67591 10.9264H1.49051C2.25877 10.9264 2.72681 10.4123 2.72681 9.77119C2.72681 9.25714 2.42063 9.02014 2.35145 8.96255C2.32266 8.93938 2.29353 8.91621 2.29353 8.89337C2.29353 8.86457 2.31074 8.85299 2.33987 8.81823C2.44976 8.69113 2.55932 8.48888 2.55932 8.19429C2.55932 7.50117 2.09128 7.13144 1.36341 7.13144H0.67591C0.219456 7.13144 0 7.39723 0 7.75538V10.3028C0 10.6609 0.219456 10.9267 0.67591 10.9267V10.9264ZM4.42486 10.9552C3.48911 10.9552 2.9979 10.3948 2.9979 9.6901V7.74346C2.9979 7.3969 3.20015 7.11952 3.56988 7.11952C3.93961 7.11952 4.14748 7.3969 4.14748 7.74346V9.62654C4.14748 9.76523 4.21666 9.9271 4.42486 9.9271C4.63306 9.9271 4.71383 9.76523 4.71383 9.62654V7.74346C4.71383 7.3969 4.91607 7.11952 5.2858 7.11952C5.65554 7.11952 5.85778 7.3969 5.85778 7.74346V9.6901C5.85778 10.3948 5.36094 10.9552 4.42519 10.9552H4.42486Z" fill="#9F8F90"/>
<path d="M7.26032 12.3817C7.26032 11.7753 6.9078 11.29 6.26102 11.29C5.61424 11.29 5.26172 11.7753 5.26172 12.3817V15.8016C5.26172 16.408 5.61424 16.8933 6.26102 16.8933C6.9078 16.8933 7.26032 16.408 7.26032 15.8016V12.3817Z" fill="#9F8F90"/>
<path d="M17.1797 20.2196C17.1797 20.0643 17.2998 19.9346 17.4647 19.9346C17.6295 19.9346 17.7497 20.0647 17.7497 20.2196C17.7497 20.3864 17.6295 20.5065 17.4647 20.5065C17.2998 20.5065 17.1797 20.3844 17.1797 20.2196ZM17.6878 20.2196C17.6878 20.0759 17.5752 19.9925 17.4647 19.9925C17.3541 19.9925 17.2416 20.0759 17.2416 20.2196C17.2416 20.3632 17.3541 20.4486 17.4647 20.4486C17.5752 20.4486 17.6878 20.3692 17.6878 20.2196ZM17.3657 20.3417V20.0994C17.3657 20.0839 17.3793 20.0683 17.3948 20.0683H17.4763C17.5402 20.0683 17.5848 20.107 17.5848 20.1593C17.5848 20.204 17.5597 20.2427 17.5014 20.2523L17.5653 20.3242C17.5713 20.3301 17.5749 20.3377 17.5749 20.3437C17.5749 20.3612 17.5633 20.3728 17.5458 20.3728C17.5342 20.3728 17.5262 20.3669 17.5206 20.3592L17.4352 20.2583H17.4256V20.3417C17.4256 20.3573 17.4121 20.3708 17.3945 20.3708C17.379 20.3708 17.3654 20.3573 17.3654 20.3417H17.3657ZM17.4687 20.204C17.5034 20.204 17.5229 20.1865 17.5229 20.1633C17.5229 20.1381 17.5054 20.1246 17.4743 20.1246H17.4256V20.204H17.4683H17.4687Z" fill="#9F8F90"/>
</g>
<defs>
<clipPath id="clip0_1558_103770">
<rect width="18" height="19.8603" fill="white" transform="translate(0 0.851562)"/>
</clipPath>
</defs>
</svg>
